<svg xmlns="http://www.w3.org/2000/svg" fill="#fff" data-name="Layer 1" viewBox="0 0 100 100"><path d="M50 5a45 45 0 1 0 45 45A45 45 0 0 0 50 5Zm30.406 75.406A43 43 0 1 1 93 50a42.861 42.861 0 0 1-12.594 30.406Z"/><path d="M66 31h-8a3 3 0 0 0-3 3v32a3 3 0 0 0 3 3h8a3 3 0 0 0 3-3V34a3 3 0 0 0-3-3Zm1 35a1.002 1.002 0 0 1-1 1h-8a1.002 1.002 0 0 1-1-1V34a1.002 1.002 0 0 1 1-1h8a1.002 1.002 0 0 1 1 1ZM42 31h-8a3 3 0 0 0-3 3v32a3 3 0 0 0 3 3h8a3 3 0 0 0 3-3V34a3 3 0 0 0-3-3Zm1 35a1.002 1.002 0 0 1-1 1h-8a1.002 1.002 0 0 1-1-1V34a1.002 1.002 0 0 1 1-1h8a1.002 1.002 0 0 1 1 1Z"/></svg>