<svg xmlns="http://www.w3.org/2000/svg" fill="#fff" data-name="Layer 1" viewBox="0 0 100 100"><path d="M50 5a45 45 0 1 0 45 45A45 45 0 0 0 50 5Zm0 88a43 43 0 1 1 30.406-12.594A42.861 42.861 0 0 1 50 93Z"/><path d="m69.783 47.764-28.815-18.36A2.547 2.547 0 0 0 39.596 29a2.588 2.588 0 0 0-1.81.748A2.64 2.64 0 0 0 37 31.64V68.36a2.64 2.64 0 0 0 .785 1.893 2.588 2.588 0 0 0 1.81.748 2.547 2.547 0 0 0 1.373-.405l28.815-18.359a2.664 2.664 0 0 0 0-4.472ZM68.71 50.55 39.893 68.909a.54.54 0 0 1-.297.09.591.591 0 0 1-.408-.173.634.634 0 0 1-.188-.467V31.64a.634.634 0 0 1 .188-.467.591.591 0 0 1 .408-.174.542.542 0 0 1 .297.091l28.816 18.36a.664.664 0 0 1 0 1.099Z"/></svg>